<?xml version="1.0" encoding="UTF-8" standalone="no"?>
<!DOCTYPE svg PUBLIC "-//W3C//DTD SVG 1.1//EN"
 "http://www.w3.org/Graphics/SVG/1.1/DTD/svg11.dtd">
<!-- Generated by graphviz version 2.26.3 (20100126.1600)
 -->
<!-- Title: controllers_diagram Pages: 1 -->
<svg width="533pt" height="266pt"
 viewBox="0.00 0.00 533.00 266.00" xmlns="http://www.w3.org/2000/svg" xmlns:xlink="http://www.w3.org/1999/xlink">
<g id="graph1" class="graph" transform="scale(1 1) rotate(0) translate(4 262)">
<title>controllers_diagram</title>
<polygon fill="white" stroke="white" points="-4,5 -4,-262 530,-262 530,5 -4,5"/>
<!-- _diagram_info -->
<g id="node1" class="node"><title>_diagram_info</title>
<text text-anchor="start" x="282" y="-241.3" font-family="Times Roman,serif" font-size="13.00">Controllers diagram</text>
<text text-anchor="start" x="282" y="-225.3" font-family="Times Roman,serif" font-size="13.00">Date: Mar 03 2014 &#45; 12:21</text>
<text text-anchor="start" x="282" y="-209.3" font-family="Times Roman,serif" font-size="13.00">Migration version: 20140227230846</text>
<text text-anchor="start" x="282" y="-193.3" font-family="Times Roman,serif" font-size="13.00">Generated by RailRoady 1.1.1</text>
<text text-anchor="start" x="282" y="-177.3" font-family="Times Roman,serif" font-size="13.00">http://railroady.prestonlee.com</text>
</g>
<!-- ApplicationController -->
<g id="node2" class="node"><title>ApplicationController</title>
<polyline fill="none" stroke="black" points="13,-10.537 150,-10.537 "/>
<path fill="none" stroke="black" d="M150,-10.537C156,-10.537 162,-16.537 162,-22.537"/>
<polyline fill="none" stroke="black" points="162,-22.537 162,-96.537 "/>
<path fill="none" stroke="black" d="M162,-96.537C162,-102.537 156,-108.537 150,-108.537"/>
<polyline fill="none" stroke="black" points="150,-108.537 13,-108.537 "/>
<path fill="none" stroke="black" d="M13,-108.537C7,-108.537 1,-102.537 1,-96.537"/>
<polyline fill="none" stroke="black" points="1,-96.537 1,-22.537 "/>
<path fill="none" stroke="black" d="M1,-22.537C1,-16.537 7,-10.537 13,-10.537"/>
<text text-anchor="middle" x="81.5" y="-91.937" font-family="Times Roman,serif" font-size="14.00">ApplicationController</text>
<polyline fill="none" stroke="black" points="1,-83.537 162,-83.537 "/>
<polyline fill="none" stroke="black" points="1,-59.537 162,-59.537 "/>
<polyline fill="none" stroke="black" points="1,-35.537 162,-35.537 "/>
<text text-anchor="start" x="9" y="-18.937" font-family="Times Roman,serif" font-size="14.00">_layout</text>
</g>
<!-- ProductsController -->
<g id="node3" class="node"><title>ProductsController</title>
<polyline fill="none" stroke="black" points="190.489,-1.5 312.489,-1.5 "/>
<path fill="none" stroke="black" d="M312.489,-1.5C318.489,-1.5 324.489,-7.5 324.489,-13.5"/>
<polyline fill="none" stroke="black" points="324.489,-13.5 324.489,-105.5 "/>
<path fill="none" stroke="black" d="M324.489,-105.5C324.489,-111.5 318.489,-117.5 312.489,-117.5"/>
<polyline fill="none" stroke="black" points="312.489,-117.5 190.489,-117.5 "/>
<path fill="none" stroke="black" d="M190.489,-117.5C184.489,-117.5 178.489,-111.5 178.489,-105.5"/>
<polyline fill="none" stroke="black" points="178.489,-105.5 178.489,-13.5 "/>
<path fill="none" stroke="black" d="M178.489,-13.5C178.489,-7.5 184.489,-1.5 190.489,-1.5"/>
<text text-anchor="middle" x="251.489" y="-100.9" font-family="Times Roman,serif" font-size="14.00">ProductsController</text>
<polyline fill="none" stroke="black" points="178.489,-92.5 324.489,-92.5 "/>
<text text-anchor="start" x="186.489" y="-75.9" font-family="Times Roman,serif" font-size="14.00">index</text>
<text text-anchor="start" x="186.489" y="-58.9" font-family="Times Roman,serif" font-size="14.00">show</text>
<polyline fill="none" stroke="black" points="178.489,-50.5 324.489,-50.5 "/>
<polyline fill="none" stroke="black" points="178.489,-26.5 324.489,-26.5 "/>
<text text-anchor="start" x="186.489" y="-9.9" font-family="Times Roman,serif" font-size="14.00">_layout</text>
</g>
<!-- ApplicationController&#45;&gt;ProductsController -->
<g id="edge2" class="edge"><title>ApplicationController&#45;&gt;ProductsController</title>
<path fill="none" stroke="black" d="M162.014,-59.5194C167.506,-59.5183 173.023,-59.5171 178.474,-59.5159"/>
</g>
</g>
</svg>
